<svg xmlns="http://www.w3.org/2000/svg" xmlns:xlink="http://www.w3.org/1999/xlink" width="290" height="8" viewBox="0 0 290 8">
  <defs>
    <linearGradient id="linear-gradient" x1="-0.25" y1="0.5" x2="1.25" y2="0.5" gradientUnits="objectBoundingBox">
      <stop offset="0" stop-color="#eaff00"/>
      <stop offset="1" stop-color="#eaff00" stop-opacity="0"/>
    </linearGradient>
  </defs>
  <g id="Group_1" data-name="Group 1" transform="translate(-1334 -1598)">
    <g id="Фигура_3_копия_2" data-name="Фигура 3 копия 2">
      <rect id="Фигура_3_копия_2-2" data-name="Фигура 3 копия 2" width="46" height="2" transform="translate(1456 1604)" fill="#9cd207"/>
      <path id="Gradient_Overlay" data-name="Gradient Overlay" d="M1456,1604h46v2h-46Z" fill="url(#linear-gradient)"/>
    </g>
    <g id="Фигура_3_копия_5" data-name="Фигура 3 копия 5">
      <path id="Фигура_3_копия_5-2" data-name="Фигура 3 копия 5" d="M1343,1606h-9v-2h0v-6h2v6h7Z" fill="#9cd207"/>
      <path id="Gradient_Overlay-2" data-name="Gradient Overlay" d="M1343,1606h-9v-2h0v-6h2v6h7Z" fill="url(#linear-gradient)"/>
    </g>
    <g id="Фигура_3_копия_6" data-name="Фигура 3 копия 6">
      <path id="Фигура_3_копия_6-2" data-name="Фигура 3 копия 6" d="M1615,1606h9v-2h0v-6h-2v6h-7Z" fill="#9cd207"/>
      <path id="Gradient_Overlay-3" data-name="Gradient Overlay" d="M1615,1606h9v-2h0v-6h-2v6h-7Z" fill="url(#linear-gradient)"/>
    </g>
    <path id="Прямоугольник_11_копия_12" data-name="Прямоугольник 11 копия 12" d="M1622,1605v-3h1v3Zm-2-5h1v5h-1Zm-2,2h1v3h-1Zm-2,0h1v3h-1Zm-2,0h1v3h-1Zm-2,0h1v3h-1Zm-2,0v-2h1v5h-1Zm-2,0h1v3h-1Zm-2,0h1v3h-1Zm-2,0h1v3h-1Zm-2,0h1v3h-1Zm-2,0h1v3h-1Zm-2-2h1v5h-1Zm-2,2h1v3h-1Zm-2,0h1v3h-1Zm-2,0h1v3h-1Zm-2,0h1v3h-1Zm-2,0v-2h1v5h-1Zm-2,0h1v3h-1Zm-2,0h1v3h-1Zm-2,0h1v3h-1Zm-2,0h1v3h-1Zm-2,0h1v3h-1Zm-2-2h1v5h-1Zm-2,2h1v3h-1Zm-2,0h1v3h-1Zm-2,0h1v3h-1Zm-2,0h1v3h-1Zm-2,0v-2h1v5h-1Zm-2,0h1v3h-1Zm-2,0h1v3h-1Zm-2,0h1v3h-1Zm-2,0h1v3h-1Zm-2,0h1v3h-1Zm-2-2h1v5h-1Zm-2,2h1v3h-1Zm-2,0h1v3h-1Zm-2,0h1v3h-1Zm-2,0h1v3h-1Zm-2,0v-2h1v5h-1Zm-2,0h1v3h-1Zm-2,0h1v3h-1Zm-2,0h1v3h-1Zm-2,0h1v3h-1Zm-2,0h1v3h-1Zm-2-2h1v5h-1Zm-2,2h1v3h-1Zm-2,0h1v3h-1Zm-2,0h1v3h-1Zm-2,0h1v3h-1Zm-2,0v-2h1v5h-1Zm-2,0h1v3h-1Zm-2,0h1v3h-1Zm-2,0h1v3h-1Zm-2,0h1v3h-1Zm-2,0h1v3h-1Zm-2-2h1v5h-1Zm-2,2h1v3h-1Zm-2,0h1v3h-1Zm-2,0h1v3h-1Zm-2,0h1v3h-1Zm-2,0v-2h1v5h-1Zm-2,0h1v3h-1Zm-2,0h1v3h-1Zm-2,0h1v3h-1Zm-2,0h1v3h-1Zm-2,0h1v3h-1Zm-2-2h1v5h-1Zm-2,2h1v3h-1Zm-2,0h1v3h-1Zm-2,0h1v3h-1Zm-2,0h1v3h-1Zm-2,0v-2h1v5h-1Zm-2,0h1v3h-1Zm-2,0h1v3h-1Zm-2,0h1v3h-1Zm-2,0h1v3h-1Zm-2,0h1v3h-1Zm-2-2h1v5h-1Zm-2,2h1v3h-1Zm-2,0h1v3h-1Zm-2,0h1v3h-1Zm-2,0h1v3h-1Zm-2,0v-2h1v5h-1Zm-2,0h1v3h-1Zm-2,0h1v3h-1Zm-2,0h1v3h-1Zm-2,0h1v3h-1Zm-2,0h1v3h-1Zm-2-2h1v5h-1Zm-2,2h1v3h-1Zm-2,0h1v3h-1Zm-2,0h1v3h-1Zm-2,0h1v3h-1Zm-2,3v-5h1v5h-1Zm-2-3h1v3h-1Zm-2,0h1v3h-1Zm-2,0h1v3h-1Zm-2,0h1v3h-1Zm-2,0h1v3h-1Zm-2-2h1v5h-1Zm-2,2h1v3h-1Zm-2,0h1v3h-1Zm-2,0h1v3h-1Zm-2,0h1v3h-1Zm-2,0v-2h1v5h-1Zm-2,0h1v3h-1Zm-2,0h1v3h-1Zm-2,0h1v3h-1Zm-2,0h1v3h-1Zm-2,0h1v3h-1Zm-2-2h1v5h-1Zm-2,2h1v3h-1Zm-2,0h1v3h-1Zm-2,0h1v3h-1Zm-2,0h1v3h-1Zm-2,0v-2h1v5h-1Zm-2,0h1v3h-1Zm-2,0h1v3h-1Zm-2,0h1v3h-1Zm-2,0h1v3h-1Zm-2,0h1v3h-1Zm-2-2h1v5h-1Zm-2,2h1v3h-1Zm-2,0h1v3h-1Zm-2,0h1v3h-1Zm-2,0h1v3h-1Zm-2,0v-2h1v5h-1Zm-2,0h1v3h-1Zm-2,0h1v3h-1Zm-2,0h1v3h-1Zm-2,0h1v3h-1Zm-2,0h1v3h-1Zm-2-2h1v5h-1Zm-2,2h1v3h-1Zm-2,0h1v3h-1Zm-2,0h1v3h-1Zm-2,0h1v3h-1Zm-2,0v-2h1v5h-1Zm-2,0h1v3h-1Zm-2,0h1v3h-1Zm-2,0h1v3h-1Zm-2,0h1v3h-1Zm-2,0h1v3h-1Z" fill="#282e33"/>
  </g>
</svg>
