<svg xmlns="http://www.w3.org/2000/svg" width="139.998" height="22.002" viewBox="0 0 139.998 22.002">
  <g id="Design_by" data-name="Design by" transform="translate(-1420 -3253)">
    <path id="rom" d="M1531.418,3274.884a8.938,8.938,0,0,1-5.666-2.622,7.792,7.792,0,0,1-2.046-5.551,8,8,0,0,1,2.031-5.655,9,9,0,0,1,5.68-2.666,13.466,13.466,0,0,1,1.531-.088,13.226,13.226,0,0,1,1.5.088,9,9,0,0,1,5.68,2.666,8,8,0,0,1,2.031,5.655,7.811,7.811,0,0,1-2.031,5.566,8.939,8.939,0,0,1-5.68,2.607,8.814,8.814,0,0,1-1.5.118A9,9,0,0,1,1531.418,3274.884Zm-.677-11.25a4.834,4.834,0,0,0-.883,3.077,4.6,4.6,0,0,0,.883,2.988,2.735,2.735,0,0,0,2.208,1.083,2.812,2.812,0,0,0,.677-.087,2.869,2.869,0,0,0,1.707-1.319,4.854,4.854,0,0,0,.677-2.666,5.191,5.191,0,0,0-.662-2.769,2.8,2.8,0,0,0-1.722-1.333,2.927,2.927,0,0,0-.706-.087A2.683,2.683,0,0,0,1530.742,3263.634Zm-85.194,11.25a8.936,8.936,0,0,1-5.666-2.622,7.792,7.792,0,0,1-2.046-5.551,8,8,0,0,1,2.03-5.655,9,9,0,0,1,5.681-2.666,13.456,13.456,0,0,1,1.531-.088,13.237,13.237,0,0,1,1.5.088,9,9,0,0,1,5.68,2.666,8,8,0,0,1,2.031,5.655,7.815,7.815,0,0,1-2.031,5.566,8.939,8.939,0,0,1-5.68,2.607,8.813,8.813,0,0,1-1.5.118A9,9,0,0,1,1445.548,3274.884Zm-.677-11.25a4.833,4.833,0,0,0-.883,3.077,4.6,4.6,0,0,0,.883,2.988,2.735,2.735,0,0,0,2.208,1.083,2.819,2.819,0,0,0,.677-.087,2.869,2.869,0,0,0,1.707-1.319,4.853,4.853,0,0,0,.677-2.666,5.2,5.2,0,0,0-.662-2.769,2.8,2.8,0,0,0-1.722-1.333,2.928,2.928,0,0,0-.707-.087A2.683,2.683,0,0,0,1444.871,3263.634Zm43.915,10.115a4.828,4.828,0,0,1-1.928-3.088,5.372,5.372,0,0,1-.088-.933,4.3,4.3,0,0,1,1.531-3.379,8.591,8.591,0,0,1,4.591-1.749,21.72,21.72,0,0,1,2.532-.116h1.912l-.058-.352a2.083,2.083,0,0,0-1.085-1.509,5.633,5.633,0,0,0-2.7-.512,13.194,13.194,0,0,0-2.551.41l-.763.2-.469.118-1.118-3.575a16.1,16.1,0,0,1,2.251-.6q1.045-.19,1.6-.264a9.11,9.11,0,0,1,1.177-.073q4.679,0,6.932,1.714a6.222,6.222,0,0,1,2.251,5.288v9.345h-5.062v-1.9q-.352.381-.515.527t-.515.409a6.226,6.226,0,0,1-2.708,1.143,5.875,5.875,0,0,1-.662.088q-.369.029-.691.029A6.2,6.2,0,0,1,1488.785,3273.749Zm5.843-5.866a4.016,4.016,0,0,0-1.3.336,1.741,1.741,0,0,0-.662.615,1.488,1.488,0,0,0-.25.806,1.349,1.349,0,0,0,.368.894,1.531,1.531,0,0,0,.839.526,2.789,2.789,0,0,0,.824.074,2.877,2.877,0,0,0,2.03-.733,2.368,2.368,0,0,0,.795-1.816v-.762l-.471-.029h-1.4A3.173,3.173,0,0,0,1494.628,3267.883Zm53.007,6.8-5.68-16.025h6.122l2.443,8.5a10.27,10.27,0,0,1,.412,2.372l.059.968a10.906,10.906,0,0,1,.235-2.139l.294-1.2,2.59-8.5H1560l-6.151,16.025Zm-31.551,0v-9.317l-.118-.527a2.153,2.153,0,0,0-.795-1.2,2.25,2.25,0,0,0-1.383-.439,2.919,2.919,0,0,0-1.545.483,2.729,2.729,0,0,0-1.1,1.216,5.208,5.208,0,0,0-.324,2.051v7.735h-5.887v-16.025h5.357v2.373l.5-.556a8.776,8.776,0,0,1,1.9-1.435,5.1,5.1,0,0,1,1.678-.6q.751-.1,1.015-.131a4.747,4.747,0,0,1,.5-.03,5.855,5.855,0,0,1,4.18,1.553,6.413,6.413,0,0,1,1.913,4.189l.029.878v9.786Zm-36.954,0v-9.58a1.984,1.984,0,0,0-.686-1.245,2.04,2.04,0,0,0-1.371-.483,2.683,2.683,0,0,0-2.281,1.421,5.2,5.2,0,0,0-.343,2.153v7.735h-5.886v-8.672q0-2.752-1.913-2.754a3.031,3.031,0,0,0-.795.147,2.328,2.328,0,0,0-1.442,1.187,5.938,5.938,0,0,0-.472,2.68v7.412H1458v-16.025h5.386v2.373l.442-.444a7.469,7.469,0,0,1,3.8-2.191,8.344,8.344,0,0,1,1.443-.148,5.751,5.751,0,0,1,2.619.592,5.409,5.409,0,0,1,1.972,1.688l.324.473a5.7,5.7,0,0,1,2.708-2.154,8.626,8.626,0,0,1,2.973-.6,4.961,4.961,0,0,1,3.87,1.655,6.182,6.182,0,0,1,1.487,4.292v10.489Zm-53.361,0v-16h5.268v2.168l.294-.381a5.076,5.076,0,0,1,4.18-2.2,5.751,5.751,0,0,1,.648.045c.255.029.451.054.589.073l1.089.292-1.148,4.922-.471-.117h-1.089a3.138,3.138,0,0,0-2.678,1.025,6.128,6.128,0,0,0-.765,3.545v6.621Z" fill="#42494e"/>
    <rect id="Прямоугольник_1" data-name="Прямоугольник 1" width="5.59" height="5.57" transform="translate(1420 3253)" fill="#757c82"/>
  </g>
</svg>
