<svg xmlns="http://www.w3.org/2000/svg" xmlns:xlink="http://www.w3.org/1999/xlink" width="176" height="56.018" viewBox="0 0 176 56.018">
  <defs>
    <linearGradient id="linear-gradient" x1="0.5" y1="4.457" x2="0.5" y2="-92.679" gradientUnits="objectBoundingBox">
      <stop offset="0" stop-color="#ffe822"/>
      <stop offset="1" stop-color="#ffe822" stop-opacity="0"/>
    </linearGradient>
    <linearGradient id="linear-gradient-2" x1="0.503" y1="-35.168" x2="0.503" y2="-245.111" gradientUnits="objectBoundingBox">
      <stop offset="0" stop-color="#c3bfbc"/>
      <stop offset="1" stop-color="#c3bfbc" stop-opacity="0"/>
    </linearGradient>
  </defs>
  <g id="Group_1" data-name="Group 1" transform="translate(-872 -3244)">
    <g id="Mi">
      <path id="Mi-2" data-name="Mi" d="M1005.99,3275.409a12.427,12.427,0,0,1-3.541-9.1,12.733,12.733,0,0,1,3.442-9.1,11.968,11.968,0,0,1,9.129-3.644q7.931,0,10.975,6.693a10.553,10.553,0,0,1,.848,3.942,10.222,10.222,0,0,1-.449,3.842h-17.41a4.584,4.584,0,0,0,1.771,3.818,6.936,6.936,0,0,0,4.414,1.388,16.3,16.3,0,0,0,7.533-1.735l3.342,3.62a18.082,18.082,0,0,1-10.875,3.866A12.32,12.32,0,0,1,1005.99,3275.409Zm4.964-14.651a4.687,4.687,0,0,0-1.721,3.322h11.424a3.484,3.484,0,0,0-.6-1.983,5.261,5.261,0,0,0-5.038-2.777A5.9,5.9,0,0,0,1010.954,3260.758ZM989.978,3279a18.283,18.283,0,0,1-6.934-1.313,10.651,10.651,0,0,1-4.789-3.446l3.591-3.371a8.124,8.124,0,0,0,3.443,2.156,13.294,13.294,0,0,0,4.64.868h.249q3.741,0,3.741-2.429a2.011,2.011,0,0,0-1-1.933,8.922,8.922,0,0,0-3.292-.743l-1.4-.149q-9.378-.792-9.378-7.189a6.7,6.7,0,0,1,2.893-5.751,12.318,12.318,0,0,1,7.233-2.132h.4a14.531,14.531,0,0,1,5.911,1.24,11.2,11.2,0,0,1,4.465,3.372l-3.592,3.321a8.416,8.416,0,0,0-3.118-2.107,9.515,9.515,0,0,0-3.617-.818h-.4a5.6,5.6,0,0,0-2.794.694,2,2,0,0,0-1.048,1.786,1.63,1.63,0,0,0,.923,1.536,9.049,9.049,0,0,0,3.218.695l1.7.2q9.229.645,9.229,7.735a6.863,6.863,0,0,1-2.743,5.577,11.278,11.278,0,0,1-7.284,2.206Zm-34.37-3.594a12.425,12.425,0,0,1-3.542-9.1,12.733,12.733,0,0,1,3.443-9.1,11.968,11.968,0,0,1,9.129-3.644q7.931,0,10.975,6.693a10.553,10.553,0,0,1,.848,3.942,10.2,10.2,0,0,1-.449,3.842H958.6a4.584,4.584,0,0,0,1.771,3.818,6.936,6.936,0,0,0,4.415,1.388,16.3,16.3,0,0,0,7.533-1.735l3.342,3.62A18.082,18.082,0,0,1,964.786,3279,12.316,12.316,0,0,1,955.607,3275.409Zm4.964-14.651a4.685,4.685,0,0,0-1.722,3.322h11.424a3.484,3.484,0,0,0-.6-1.983,5.26,5.26,0,0,0-5.038-2.777A5.9,5.9,0,0,0,960.571,3260.758Zm81.039,17.952V3244H1048v34.71Zm-11.229,0V3244h6.39v34.71Zm-87.195,0v-12.693q0-6.345-5.537-6.346a5.614,5.614,0,0,0-4.39,1.711,7.518,7.518,0,0,0-1.546,5.18v12.147h-6.336v-24.79h4.241l.449,3.867q2.593-4.213,8.58-4.215,5.287,0,8.081,3.248t2.794,8.8v13.089Zm-30.729,0v-24.79h6.335v24.79Zm-12.571,0v-22.162l-10.526,12.99-10.476-12.99v22.162H872V3244h4.091l13.27,16.56L902.679,3244h4.091v34.706Zm13.095-27.963a3.067,3.067,0,0,1,0-4.66,3.832,3.832,0,0,1,2.619-.942,3.9,3.9,0,0,1,2.669.942,3.067,3.067,0,0,1,0,4.66,3.9,3.9,0,0,1-2.669.942A3.827,3.827,0,0,1,912.981,3250.742Z" fill="#42494e"/>
      <path id="Gradient_Overlay" data-name="Gradient Overlay" d="M1005.99,3275.409a12.427,12.427,0,0,1-3.541-9.1,12.733,12.733,0,0,1,3.442-9.1,11.968,11.968,0,0,1,9.129-3.644q7.931,0,10.975,6.693a10.553,10.553,0,0,1,.848,3.942,10.222,10.222,0,0,1-.449,3.842h-17.41a4.584,4.584,0,0,0,1.771,3.818,6.936,6.936,0,0,0,4.414,1.388,16.3,16.3,0,0,0,7.533-1.735l3.342,3.62a18.082,18.082,0,0,1-10.875,3.866A12.32,12.32,0,0,1,1005.99,3275.409Zm4.964-14.651a4.687,4.687,0,0,0-1.721,3.322h11.424a3.484,3.484,0,0,0-.6-1.983,5.261,5.261,0,0,0-5.038-2.777A5.9,5.9,0,0,0,1010.954,3260.758ZM989.978,3279a18.283,18.283,0,0,1-6.934-1.313,10.651,10.651,0,0,1-4.789-3.446l3.591-3.371a8.124,8.124,0,0,0,3.443,2.156,13.294,13.294,0,0,0,4.64.868h.249q3.741,0,3.741-2.429a2.011,2.011,0,0,0-1-1.933,8.922,8.922,0,0,0-3.292-.743l-1.4-.149q-9.378-.792-9.378-7.189a6.7,6.7,0,0,1,2.893-5.751,12.318,12.318,0,0,1,7.233-2.132h.4a14.531,14.531,0,0,1,5.911,1.24,11.2,11.2,0,0,1,4.465,3.372l-3.592,3.321a8.416,8.416,0,0,0-3.118-2.107,9.515,9.515,0,0,0-3.617-.818h-.4a5.6,5.6,0,0,0-2.794.694,2,2,0,0,0-1.048,1.786,1.63,1.63,0,0,0,.923,1.536,9.049,9.049,0,0,0,3.218.695l1.7.2q9.229.645,9.229,7.735a6.863,6.863,0,0,1-2.743,5.577,11.278,11.278,0,0,1-7.284,2.206Zm-34.37-3.594a12.425,12.425,0,0,1-3.542-9.1,12.733,12.733,0,0,1,3.443-9.1,11.968,11.968,0,0,1,9.129-3.644q7.931,0,10.975,6.693a10.553,10.553,0,0,1,.848,3.942,10.2,10.2,0,0,1-.449,3.842H958.6a4.584,4.584,0,0,0,1.771,3.818,6.936,6.936,0,0,0,4.415,1.388,16.3,16.3,0,0,0,7.533-1.735l3.342,3.62A18.082,18.082,0,0,1,964.786,3279,12.316,12.316,0,0,1,955.607,3275.409Zm4.964-14.651a4.685,4.685,0,0,0-1.722,3.322h11.424a3.484,3.484,0,0,0-.6-1.983,5.26,5.26,0,0,0-5.038-2.777A5.9,5.9,0,0,0,960.571,3260.758Zm81.039,17.952V3244H1048v34.71Zm-11.229,0V3244h6.39v34.71Zm-87.195,0v-12.693q0-6.345-5.537-6.346a5.614,5.614,0,0,0-4.39,1.711,7.518,7.518,0,0,0-1.546,5.18v12.147h-6.336v-24.79h4.241l.449,3.867q2.593-4.213,8.58-4.215,5.287,0,8.081,3.248t2.794,8.8v13.089Zm-30.729,0v-24.79h6.335v24.79Zm-12.571,0v-22.162l-10.526,12.99-10.476-12.99v22.162H872V3244h4.091l13.27,16.56L902.679,3244h4.091v34.706Zm13.095-27.963a3.067,3.067,0,0,1,0-4.66,3.832,3.832,0,0,1,2.619-.942,3.9,3.9,0,0,1,2.669.942,3.067,3.067,0,0,1,0,4.66,3.9,3.9,0,0,1-2.669.942A3.827,3.827,0,0,1,912.981,3250.742Z" opacity="0.55" fill="url(#linear-gradient)"/>
    </g>
    <g id="онлайн-магазин_игр" data-name="онлайн-магазин игр">
      <path id="онлайн-магазин_игр-2" data-name="онлайн-магазин игр" d="M1021.006,3300.018v-8.892h.676l.039,1.469a2.976,2.976,0,0,1,2.639-1.56,3.079,3.079,0,0,1,2.314.975,3.45,3.45,0,0,1,0,4.725,3.087,3.087,0,0,1-2.314.968,2.729,2.729,0,0,1-1.424-.383,2.579,2.579,0,0,1-.981-1.021v3.718Zm1.586-7.377a2.5,2.5,0,0,0,0,3.47,2.384,2.384,0,0,0,3.367,0,2.5,2.5,0,0,0,0-3.47,2.385,2.385,0,0,0-3.367,0Zm-41.3,5.076a3.844,3.844,0,0,1-1.709-.383,2.472,2.472,0,0,1-1.1-.916l.533-.572a2.269,2.269,0,0,0,.93.728,3.128,3.128,0,0,0,1.333.286h.208a2.231,2.231,0,0,0,1.229-.306.994.994,0,0,0,.474-.89q0-1.078-1.391-1.092l-1.144-.014v-.611h1.053q1.184,0,1.183-.988a.892.892,0,0,0-.423-.786,1.886,1.886,0,0,0-1.059-.279h-.156a2.538,2.538,0,0,0-2.029.9l-.519-.56a3.154,3.154,0,0,1,1.124-.858,3.418,3.418,0,0,1,1.489-.337h.169a2.873,2.873,0,0,1,1.677.468,1.468,1.468,0,0,1,.676,1.273,1.38,1.38,0,0,1-.975,1.444,1.469,1.469,0,0,1,1.273,1.56,1.638,1.638,0,0,1-.727,1.437,3.288,3.288,0,0,1-1.9.5Zm-10.807-.982a3.45,3.45,0,0,1,0-4.725,3.082,3.082,0,0,1,2.315-.975,2.979,2.979,0,0,1,1.553.422,2.886,2.886,0,0,1,1.085,1.125l.039-1.456h.676v6.5h-.676l-.039-1.469a2.9,2.9,0,0,1-1.079,1.124,2.966,2.966,0,0,1-1.56.422A3.091,3.091,0,0,1,970.486,3296.734Zm.7-4.094a2.5,2.5,0,0,0-.006,3.464,2.389,2.389,0,0,0,4.075-1.729,2.34,2.34,0,0,0-.7-1.735,2.385,2.385,0,0,0-3.367,0Zm-16.7,4.094a3.45,3.45,0,0,1,0-4.725,3.079,3.079,0,0,1,2.314-.975,2.976,2.976,0,0,1,1.553.422,2.881,2.881,0,0,1,1.085,1.125l.039-1.456h.676v6.5h-.676l-.039-1.469a2.9,2.9,0,0,1-1.079,1.124,2.966,2.966,0,0,1-1.56.422A3.087,3.087,0,0,1,954.487,3296.734Zm.7-4.094a2.5,2.5,0,0,0-.007,3.464,2.389,2.389,0,0,0,4.076-1.729,2.344,2.344,0,0,0-.7-1.735,2.385,2.385,0,0,0-3.367,0Zm-39.7,4.094a3.45,3.45,0,0,1,0-4.725,3.081,3.081,0,0,1,2.314-.975,2.974,2.974,0,0,1,1.553.422,2.883,2.883,0,0,1,1.086,1.125l.039-1.456h.676v6.5h-.676l-.039-1.469a2.9,2.9,0,0,1-1.079,1.124,2.967,2.967,0,0,1-1.561.422A3.09,3.09,0,0,1,915.486,3296.734Zm.7-4.094a2.5,2.5,0,0,0-.006,3.464,2.389,2.389,0,0,0,4.075-1.729,2.344,2.344,0,0,0-.7-1.735,2.385,2.385,0,0,0-3.367,0Zm-23.669,4.088a3.351,3.351,0,1,1,2.359.975A3.214,3.214,0,0,1,892.519,3296.728Zm.67-4.088a2.5,2.5,0,0,0-.006,3.464,2.3,2.3,0,0,0,1.683.688,2.424,2.424,0,0,0,0-4.848A2.3,2.3,0,0,0,893.189,3292.64Zm120.752,4.985v-6.5h5v.9h-4.056v5.6Zm-3.1,0v-4.914l-4.329,4.914h-.572v-6.5h.949v4.914l4.329-4.914h.559v6.5Zm-11.961,0V3294.8H994.89v2.822h-.949v-6.5h.949v2.768h3.991v-2.768h.95v6.5Zm-8.039,0v-4.914l-4.329,4.914h-.571v-6.5h.949v4.914l4.329-4.914h.559v6.5Zm-27.9,0v-6.5h5v.9h-4.056v5.6Zm-12.267,0v-4.914l-2.392,2.717-2.392-2.717v4.914h-.949v-6.5h.572l2.768,3.146,2.769-3.146h.572v6.5Zm-13.793,0V3294.8H932.89v2.822h-.949v-6.5h.949v2.768h3.991v-2.768h.949v6.5Zm-8.039,0v-4.914l-4.329,4.914h-.572v-6.5h.949v4.914l4.329-4.914h.559v6.5Zm-16.078,0-2.288-5.043-2.275,5.043h-1l2.991-6.5h.572l3,6.5Zm-7.883,0V3294.8h-3.992v2.822h-.949v-6.5h.949v2.768h3.992v-2.768h.949v6.5Zm34.669-3.425v-.64h3.22v.64Zm-14.017-4.316a1.555,1.555,0,0,1-.539-1.2h.689a.9.9,0,0,0,.338.715,1.246,1.246,0,0,0,.832.286,1.274,1.274,0,0,0,.839-.286.893.893,0,0,0,.345-.715h.676a1.556,1.556,0,0,1-.54,1.2,2.028,2.028,0,0,1-2.639,0Z" fill="#434b50"/>
      <path id="Gradient_Overlay-2" data-name="Gradient Overlay" d="M1021.006,3300.018v-8.892h.676l.039,1.469a2.976,2.976,0,0,1,2.639-1.56,3.079,3.079,0,0,1,2.314.975,3.45,3.45,0,0,1,0,4.725,3.087,3.087,0,0,1-2.314.968,2.729,2.729,0,0,1-1.424-.383,2.579,2.579,0,0,1-.981-1.021v3.718Zm1.586-7.377a2.5,2.5,0,0,0,0,3.47,2.384,2.384,0,0,0,3.367,0,2.5,2.5,0,0,0,0-3.47,2.385,2.385,0,0,0-3.367,0Zm-41.3,5.076a3.844,3.844,0,0,1-1.709-.383,2.472,2.472,0,0,1-1.1-.916l.533-.572a2.269,2.269,0,0,0,.93.728,3.128,3.128,0,0,0,1.333.286h.208a2.231,2.231,0,0,0,1.229-.306.994.994,0,0,0,.474-.89q0-1.078-1.391-1.092l-1.144-.014v-.611h1.053q1.184,0,1.183-.988a.892.892,0,0,0-.423-.786,1.886,1.886,0,0,0-1.059-.279h-.156a2.538,2.538,0,0,0-2.029.9l-.519-.56a3.154,3.154,0,0,1,1.124-.858,3.418,3.418,0,0,1,1.489-.337h.169a2.873,2.873,0,0,1,1.677.468,1.468,1.468,0,0,1,.676,1.273,1.38,1.38,0,0,1-.975,1.444,1.469,1.469,0,0,1,1.273,1.56,1.638,1.638,0,0,1-.727,1.437,3.288,3.288,0,0,1-1.9.5Zm-10.807-.982a3.45,3.45,0,0,1,0-4.725,3.082,3.082,0,0,1,2.315-.975,2.979,2.979,0,0,1,1.553.422,2.886,2.886,0,0,1,1.085,1.125l.039-1.456h.676v6.5h-.676l-.039-1.469a2.9,2.9,0,0,1-1.079,1.124,2.966,2.966,0,0,1-1.56.422A3.091,3.091,0,0,1,970.486,3296.734Zm.7-4.094a2.5,2.5,0,0,0-.006,3.464,2.389,2.389,0,0,0,4.075-1.729,2.34,2.34,0,0,0-.7-1.735,2.385,2.385,0,0,0-3.367,0Zm-16.7,4.094a3.45,3.45,0,0,1,0-4.725,3.079,3.079,0,0,1,2.314-.975,2.976,2.976,0,0,1,1.553.422,2.881,2.881,0,0,1,1.085,1.125l.039-1.456h.676v6.5h-.676l-.039-1.469a2.9,2.9,0,0,1-1.079,1.124,2.966,2.966,0,0,1-1.56.422A3.087,3.087,0,0,1,954.487,3296.734Zm.7-4.094a2.5,2.5,0,0,0-.007,3.464,2.389,2.389,0,0,0,4.076-1.729,2.344,2.344,0,0,0-.7-1.735,2.385,2.385,0,0,0-3.367,0Zm-39.7,4.094a3.45,3.45,0,0,1,0-4.725,3.081,3.081,0,0,1,2.314-.975,2.974,2.974,0,0,1,1.553.422,2.883,2.883,0,0,1,1.086,1.125l.039-1.456h.676v6.5h-.676l-.039-1.469a2.9,2.9,0,0,1-1.079,1.124,2.967,2.967,0,0,1-1.561.422A3.09,3.09,0,0,1,915.486,3296.734Zm.7-4.094a2.5,2.5,0,0,0-.006,3.464,2.389,2.389,0,0,0,4.075-1.729,2.344,2.344,0,0,0-.7-1.735,2.385,2.385,0,0,0-3.367,0Zm-23.669,4.088a3.351,3.351,0,1,1,2.359.975A3.214,3.214,0,0,1,892.519,3296.728Zm.67-4.088a2.5,2.5,0,0,0-.006,3.464,2.3,2.3,0,0,0,1.683.688,2.424,2.424,0,0,0,0-4.848A2.3,2.3,0,0,0,893.189,3292.64Zm120.752,4.985v-6.5h5v.9h-4.056v5.6Zm-3.1,0v-4.914l-4.329,4.914h-.572v-6.5h.949v4.914l4.329-4.914h.559v6.5Zm-11.961,0V3294.8H994.89v2.822h-.949v-6.5h.949v2.768h3.991v-2.768h.95v6.5Zm-8.039,0v-4.914l-4.329,4.914h-.571v-6.5h.949v4.914l4.329-4.914h.559v6.5Zm-27.9,0v-6.5h5v.9h-4.056v5.6Zm-12.267,0v-4.914l-2.392,2.717-2.392-2.717v4.914h-.949v-6.5h.572l2.768,3.146,2.769-3.146h.572v6.5Zm-13.793,0V3294.8H932.89v2.822h-.949v-6.5h.949v2.768h3.991v-2.768h.949v6.5Zm-8.039,0v-4.914l-4.329,4.914h-.572v-6.5h.949v4.914l4.329-4.914h.559v6.5Zm-16.078,0-2.288-5.043-2.275,5.043h-1l2.991-6.5h.572l3,6.5Zm-7.883,0V3294.8h-3.992v2.822h-.949v-6.5h.949v2.768h3.992v-2.768h.949v6.5Zm34.669-3.425v-.64h3.22v.64Zm-14.017-4.316a1.555,1.555,0,0,1-.539-1.2h.689a.9.9,0,0,0,.338.715,1.246,1.246,0,0,0,.832.286,1.274,1.274,0,0,0,.839-.286.893.893,0,0,0,.345-.715h.676a1.556,1.556,0,0,1-.54,1.2,2.028,2.028,0,0,1-2.639,0Z" opacity="0.4" fill="url(#linear-gradient-2)"/>
    </g>
  </g>
</svg>
